<svg xmlns="http://www.w3.org/2000/svg" width="391" height="286" viewBox="0 0 391 286"><defs><linearGradient id="mueva" x1="167.76" x2="223.48" y1="0" y2="285.15" gradientUnits="userSpaceOnUse"><stop offset="0" stop-color="#e3fbdd" stop-opacity=".95"/><stop offset="1" stop-color="#fff1ee" stop-opacity=".95"/></linearGradient></defs><g><g><path fill="#feb400" d="M359.187 3.599L9.257 248.88c-9.003 6.31-11.197 18.74-4.901 27.76 6.296 9.022 18.698 11.22 27.701 4.91l349.93-245.284c9.003-6.31 11.197-18.739 4.9-27.76-6.295-9.021-18.698-11.219-27.7-4.908z"/><path fill="url(#mueva)" d="M359.187 3.599L9.257 248.88c-9.003 6.31-11.197 18.74-4.901 27.76 6.296 9.022 18.698 11.22 27.701 4.91l349.93-245.284c9.003-6.31 11.197-18.739 4.9-27.76-6.295-9.021-18.698-11.219-27.7-4.908z"/></g></g></svg>