<svg xmlns="http://www.w3.org/2000/svg" width="238" height="179" viewBox="0 0 238 179"><defs><linearGradient id="g16la" x1="102.3" x2="136.02" y1="0" y2="178.3" gradientUnits="userSpaceOnUse"><stop offset="0" stop-color="#f5e7ef" stop-opacity=".95"/><stop offset="1" stop-color="#fff1ee" stop-opacity=".95"/></linearGradient></defs><g><g><path fill="#feb400" d="M206.74 3.585L8.81 142.015c-9.01 6.3-11.217 18.728-4.93 27.755 6.286 9.028 18.686 11.239 27.696 4.938l197.931-138.43c9.01-6.301 11.217-18.728 4.93-27.756C228.15-.506 215.75-2.716 206.74 3.585z"/><path fill="url(#g16la)" d="M206.74 3.585L8.81 142.015c-9.01 6.3-11.217 18.728-4.93 27.755 6.286 9.028 18.686 11.239 27.696 4.938l197.931-138.43c9.01-6.301 11.217-18.728 4.93-27.756C228.15-.506 215.75-2.716 206.74 3.585z"/></g></g></svg>