<svg xmlns="http://www.w3.org/2000/svg" width="322" height="234" viewBox="0 0 322 234"><defs><linearGradient id="ybg0a" x1="138.02" x2="183.68" y1=".62" y2="234" gradientUnits="userSpaceOnUse"><stop offset="0" stop-color="#e3fbdd" stop-opacity=".95"/><stop offset="1" stop-color="#fff0ed" stop-opacity=".95"/></linearGradient></defs><g><g><path fill="#feb400" d="M293.05 2.981L6.26 198.694c-7.379 5.035-8.348 16.494-2.165 25.593 6.183 9.1 17.176 12.395 24.555 7.36L315.44 35.933c7.379-5.036 8.348-16.494 2.165-25.594-6.183-9.099-17.176-12.394-24.555-7.359z"/><path fill="url(#ybg0a)" d="M293.05 2.981L6.26 198.694c-7.379 5.035-8.348 16.494-2.165 25.593 6.183 9.1 17.176 12.395 24.555 7.36L315.44 35.933c7.379-5.036 8.348-16.494 2.165-25.594-6.183-9.099-17.176-12.394-24.555-7.359z"/><path fill="#f6e7ee" d="M293.05 2.981L6.26 198.694c-7.379 5.035-8.348 16.494-2.165 25.593 6.183 9.1 17.176 12.395 24.555 7.36L315.44 35.933c7.379-5.036 8.348-16.494 2.165-25.594-6.183-9.099-17.176-12.394-24.555-7.359z"/></g></g></svg>