<svg xmlns="http://www.w3.org/2000/svg" width="96" height="74" viewBox="0 0 96 74"><defs><linearGradient id="mg7ga" x1="41.3" x2="54.99" y1="0" y2="73.69" gradientUnits="userSpaceOnUse"><stop offset="0" stop-color="#f5e7ef" stop-opacity=".95"/><stop offset="1" stop-color="#fff1ee" stop-opacity=".95"/></linearGradient></defs><g><g><path fill="#feb400" d="M92.644 14.65L13.149 72.158C9.531 74.775 4.47 73.961 1.847 70.34c-2.624-3.621-1.818-8.679 1.8-11.296L83.141 1.537c3.619-2.617 8.68-1.804 11.303 1.817 2.624 3.621 1.818 8.679-1.8 11.297z"/><path fill="url(#mg7ga)" d="M92.644 14.65L13.149 72.158C9.531 74.775 4.47 73.961 1.847 70.34c-2.624-3.621-1.818-8.679 1.8-11.296L83.141 1.537c3.619-2.617 8.68-1.804 11.303 1.817 2.624 3.621 1.818 8.679-1.8 11.297z"/></g></g></svg>