<svg xmlns="http://www.w3.org/2000/svg" width="128" height="100" viewBox="0 0 128 100"><defs><linearGradient id="ry6fa" x1="54.01" x2="73.63" y1=".04" y2="99.2" gradientUnits="userSpaceOnUse"><stop offset="0" stop-color="#e3fbdd" stop-opacity=".95"/><stop offset="1" stop-color="#fff0ed" stop-opacity=".95"/></linearGradient></defs><g><g><path fill="#feb400" d="M125.302 14.135L11.985 98.11c-2.915 2.16-7.44 1.001-10.105-2.59-2.665-3.59-2.462-8.253.453-10.413L115.65 1.132c2.915-2.16 7.44-1.001 10.105 2.59 2.665 3.59 2.462 8.253-.453 10.413z"/><path fill="url(#ry6fa)" d="M125.302 14.135L11.985 98.11c-2.915 2.16-7.44 1.001-10.105-2.59-2.665-3.59-2.462-8.253.453-10.413L115.65 1.132c2.915-2.16 7.44-1.001 10.105 2.59 2.665 3.59 2.462 8.253-.453 10.413z"/><path fill="#f6e7ee" d="M125.302 14.135L11.985 98.11c-2.915 2.16-7.44 1.001-10.105-2.59-2.665-3.59-2.462-8.253.453-10.413L115.65 1.132c2.915-2.16 7.44-1.001 10.105 2.59 2.665 3.59 2.462 8.253-.453 10.413z"/></g></g></svg>