<svg xmlns="http://www.w3.org/2000/svg" width="157" height="118" viewBox="0 0 157 118"><defs><linearGradient id="ls43a" x1="66.99" x2="89.93" y1=".22" y2="118" gradientUnits="userSpaceOnUse"><stop offset="0" stop-color="#e3fbdd" stop-opacity=".95"/><stop offset="1" stop-color="#fff1ee" stop-opacity=".95"/></linearGradient></defs><g><g><path fill="#feb400" d="M153.576 14.872L12.826 116.466c-3.621 2.614-8.681 1.796-11.301-1.828-2.62-3.624-1.809-8.68 1.812-11.295L144.087 1.748c3.622-2.613 8.682-1.794 11.302 1.83 2.62 3.623 1.808 8.68-1.813 11.294z"/><path fill="url(#ls43a)" d="M153.576 14.872L12.826 116.466c-3.621 2.614-8.681 1.796-11.301-1.828-2.62-3.624-1.809-8.68 1.812-11.295L144.087 1.748c3.622-2.613 8.682-1.794 11.302 1.83 2.62 3.623 1.808 8.68-1.813 11.294z"/></g></g></svg>