<svg width="0" height="0" class="hidden">
  <symbol xmlns="http://www.w3.org/2000/svg" viewBox="0 0 100 100" id="viber">
    <path d="M57.4 4h-15C21.2 4 3.9 21.3 3.9 42.5c0 14.1 7.6 27 20 33.8v15.2c0 2.5 2 4.5 4.5 4.5 1.2 0 2.4-.5 3.2-1.3L45.3 81h12.1c21.2 0 38.5-17.3 38.5-38.5S78.7 4 57.4 4zm-9.1 16.7c.2-.1.2-.2.9-.2h.6c.6 0 1.5.1 2 .1 2.4.3 4 .6 6.3 1.7 2.2 1 3.6 2 5.4 3.8 1.7 1.7 2.7 3 3.7 5 1.4 2.8 2.2 6.1 2.4 9.8 0 1.3 0 1.4-.2 1.6-.2.2-.4.3-.7.3-.3 0-.5-.2-.7-.4-.1-.2-.1-.3-.2-1.3-.1-1.6-.2-2.6-.4-3.8-.9-4.9-3.3-8.8-7.1-11.6-3.1-2.3-5.9-3.2-10.3-3.5-1.4-.1-1.5-.1-1.7-.3-.2-.1-.3-.4-.3-.6.1-.2.1-.4.3-.6zm7.6 8.9c-1.5-.9-3.9-1.6-5.9-1.7-.6-.1-.9-.1-1.1-.4-.3-.3-.3-.7-.1-1 .1-.2.4-.5 2.3-.2 4.4.6 7.8 2.6 10 5.8 1.2 1.8 2 3.9 2.3 6.2.1.7.1 2.2 0 2.5 0 .1-.3.4-.4.5-.2.1-.6.1-.8-.1-.2-.1-.5-.2-.5-1.5 0-2-.5-4.1-1.4-5.7-1.1-1.8-2.6-3.3-4.4-4.4zm1.3 10.3c-.2.2-.8.2-1.1 0-.2-.2-.3-.3-.3-.9-.1-1.1-.3-1.8-.6-2.5-.7-1.5-2-2.3-4.2-2.6-.9-.1-1-.2-1.2-.4-.2-.2-.2-.4-.2-.7.1-.3.2-.5.4-.6.2-.1.2-.1.4-.1h.4c.3 0 .9.1 1.2.1 1.4.3 2.4.8 3.3 1.6 1.2 1.1 1.8 2.3 2.1 4.2.2 1.5.1 1.7-.2 1.9zm13.6 19c-.3.7-.9 1.6-1.3 2.2-.8 1.1-1.8 2.2-2.7 2.9-.2.2-.4.3-.5.4-.2.1-.3.2-.4.3-.8.5-1.4.9-2.1 1.1-.5.2-1 .2-1.6.3h-.5c-.9 0-1.5-.2-2.7-.7-1-.4-2.1-.9-3.2-1.4l-.3-.1-3-1.5c-.1-.1-.3-.1-.4-.2-.9-.5-1.9-1.1-2.8-1.6l-.3-.1-.1-.1C42.7 56.6 37.5 51.9 33 46c-.4-.6-.8-1.1-1.2-1.7-.2-.3-.4-.5-.6-.8l-.6-.8c-.3-.5-.7-1-1-1.5l-.1-.1-.9-1.5-.1-.1c-1.5-2.5-2.7-5.1-3.7-7.7-1-2.8-1.3-4.4-.2-6.4.5-.8 2.2-2.4 3.4-3.3 2.1-1.5 3-2.1 3.9-2.2.6-.1 1.7-.1 2.4.2.3.1.8.4 1.1.5 1.7 1.1 5.7 6.3 7 8.7.9 1.7 1.1 2.9.8 4-.3 1.1-.9 1.7-2.7 3.2-.4.3-.8.6-1.1.9l-.2.2-.8-.6.5.5.2.2c-.1.2-.3.7-.3 1.1 0 .9.7 2.9 1.7 4.6.8 1.2 2.2 2.8 3.6 4.1 1.6 1.5 3.1 2.5 4.7 3.2 1.8.9 3 1.2 3.6.9.1-.1.2-.1.3-.2.1-.1.5-.5 1.2-1.4.9-1.1 1.4-1.7 2.1-2 .2-.1.4-.2.7-.3 1.3-.4 2.6-.3 4 .3.9.5 2.7 1.5 3.9 2.4 1.5 1 4.9 3.7 5.4 4.3.6.7.9 1.5.9 2.4.3.4.1 1.1-.1 1.8z"></path>
  </symbol>
  <symbol xmlns="http://www.w3.org/2000/svg" viewBox="0 0 512.001 512.001" id="cancel">
    <path d="M284.286 256.002L506.143 34.144c7.811-7.811 7.811-20.475 0-28.285-7.811-7.81-20.475-7.811-28.285 0L256 227.717 34.143 5.859c-7.811-7.811-20.475-7.811-28.285 0-7.81 7.811-7.811 20.475 0 28.285l221.857 221.857L5.858 477.859c-7.811 7.811-7.811 20.475 0 28.285a19.938 19.938 0 0014.143 5.857 19.94 19.94 0 0014.143-5.857L256 284.287l221.857 221.857c3.905 3.905 9.024 5.857 14.143 5.857s10.237-1.952 14.143-5.857c7.811-7.811 7.811-20.475 0-28.285L284.286 256.002z"></path>
  </symbol>
  <symbol xmlns="http://www.w3.org/2000/svg" viewBox="0 0 490.787 490.787" id="left">
    <path d="M362.671 490.787a10.663 10.663 0 01-7.552-3.115L120.452 253.006c-4.164-4.165-4.164-10.917 0-15.083L355.119 3.256c4.093-4.237 10.845-4.354 15.083-.262 4.237 4.093 4.354 10.845.262 15.083-.086.089-.173.176-.262.262L143.087 245.454l227.136 227.115c4.171 4.16 4.179 10.914.019 15.085a10.67 10.67 0 01-7.571 3.133z"></path>
    <path d="M362.671 490.787a10.663 10.663 0 01-7.552-3.115L120.452 253.006c-4.164-4.165-4.164-10.917 0-15.083L355.119 3.256c4.093-4.237 10.845-4.354 15.083-.262 4.237 4.093 4.354 10.845.262 15.083-.086.089-.173.176-.262.262L143.087 245.454l227.136 227.115c4.171 4.16 4.179 10.914.019 15.085a10.67 10.67 0 01-7.571 3.133z"></path>
  </symbol>
  <symbol xmlns="http://www.w3.org/2000/svg" viewBox="0 0 490.8 490.8" id="right">
    <path d="M135.685 3.128c-4.237-4.093-10.99-3.975-15.083.262-3.992 4.134-3.992 10.687 0 14.82l227.115 227.136-227.136 227.115c-4.237 4.093-4.354 10.845-.262 15.083 4.093 4.237 10.845 4.354 15.083.262.089-.086.176-.173.262-.262l234.667-234.667c4.164-4.165 4.164-10.917 0-15.083L135.685 3.128z"></path>
    <path d="M128.133 490.68a10.667 10.667 0 01-7.552-18.219l227.136-227.115L120.581 18.232c-4.171-4.171-4.171-10.933 0-15.104 4.171-4.171 10.933-4.171 15.104 0l234.667 234.667c4.164 4.165 4.164 10.917 0 15.083L135.685 487.544a10.663 10.663 0 01-7.552 3.136z"></path>
  </symbol>
  <symbol xmlns="http://www.w3.org/2000/svg" viewBox="0 0 512 512" id="left-arrow">
    <path d="M492 236H68.442l70.164-69.824c7.829-7.792 7.859-20.455.067-28.284-7.792-7.83-20.456-7.859-28.285-.068l-104.504 104-.018.019c-7.809 7.792-7.834 20.496-.002 28.314l.018.019 104.504 104c7.828 7.79 20.492 7.763 28.285-.068 7.792-7.829 7.762-20.492-.067-28.284L68.442 276H492c11.046 0 20-8.954 20-20s-8.954-20-20-20z"></path>
  </symbol>
  <symbol xmlns="http://www.w3.org/2000/svg" viewBox="0 0 512 512" id="right-arrow">
    <path d="M506.134 241.843l-.018-.019-104.504-104c-7.829-7.791-20.492-7.762-28.285.068-7.792 7.829-7.762 20.492.067 28.284L443.558 236H20c-11.046 0-20 8.954-20 20s8.954 20 20 20h423.557l-70.162 69.824c-7.829 7.792-7.859 20.455-.067 28.284 7.793 7.831 20.457 7.858 28.285.068l104.504-104 .018-.019c7.833-7.818 7.808-20.522-.001-28.314z"></path>
  </symbol>
  <symbol xmlns="http://www.w3.org/2000/svg" viewBox="0 0 320.001 320.001" id="play">
    <path d="M295.84 146.049l-256-144a16.026 16.026 0 00-15.904.128A15.986 15.986 0 0016 16.001v288a15.986 15.986 0 007.936 13.824A16.144 16.144 0 0032 320.001c2.688 0 5.408-.672 7.84-2.048l256-144c5.024-2.848 8.16-8.16 8.16-13.952s-3.136-11.104-8.16-13.952z"></path>
  </symbol>
  <symbol xmlns="http://www.w3.org/2000/svg" viewBox="0 0 512 512" id="email">
    <path d="M256.064 0h-.128C114.784 0 0 114.816 0 256c0 56 18.048 107.904 48.736 150.048l-31.904 95.104 98.4-31.456C155.712 496.512 204 512 256.064 512 397.216 512 512 397.152 512 256S397.216 0 256.064 0zm148.96 361.504c-6.176 17.44-30.688 31.904-50.24 36.128-13.376 2.848-30.848 5.12-89.664-19.264-75.232-31.168-123.68-107.616-127.456-112.576-3.616-4.96-30.4-40.48-30.4-77.216s18.656-54.624 26.176-62.304c6.176-6.304 16.384-9.184 26.176-9.184 3.168 0 6.016.16 8.576.288 7.52.32 11.296.768 16.256 12.64 6.176 14.88 21.216 51.616 23.008 55.392 1.824 3.776 3.648 8.896 1.088 13.856-2.4 5.12-4.512 7.392-8.288 11.744-3.776 4.352-7.36 7.68-11.136 12.352-3.456 4.064-7.36 8.416-3.008 15.936 4.352 7.36 19.392 31.904 41.536 51.616 28.576 25.44 51.744 33.568 60.032 37.024 6.176 2.56 13.536 1.952 18.048-2.848 5.728-6.176 12.8-16.416 20-26.496 5.12-7.232 11.584-8.128 18.368-5.568 6.912 2.4 43.488 20.48 51.008 24.224 7.52 3.776 12.48 5.568 14.304 8.736 1.792 3.168 1.792 18.048-4.384 35.52z"></path>
  </symbol>
</svg>