<svg xmlns="http://www.w3.org/2000/svg" width="121" height="104" viewBox="0 0 121 104"><defs><linearGradient id="68wka" x1="50.01" x2="71.05" y1=".42" y2="103.88" gradientUnits="userSpaceOnUse"><stop offset="0" stop-color="#f5e7ef" stop-opacity=".95"/><stop offset="1" stop-color="#fff1ee" stop-opacity=".95"/></linearGradient></defs><g><g><path fill="#feb400" d="M17.409 2.846l99.757 82.134c4.541 3.738 5.197 10.456 1.464 15.005-3.732 4.548-10.438 5.205-14.98 1.466L3.894 19.317C-.647 15.58-1.303 8.86 2.43 4.312 6.161-.236 12.868-.893 17.41 2.846z"/><path fill="url(#68wka)" d="M17.409 2.846l99.757 82.134c4.541 3.738 5.197 10.456 1.464 15.005-3.732 4.548-10.438 5.205-14.98 1.466L3.894 19.317C-.647 15.58-1.303 8.86 2.43 4.312 6.161-.236 12.868-.893 17.41 2.846z"/></g></g></svg>