<svg xmlns="http://www.w3.org/2000/svg" width="199" height="167" viewBox="0 0 199 167"><defs><linearGradient id="zirka" x1="83.56" x2="115.19" y1=".01" y2="166.83" gradientUnits="userSpaceOnUse"><stop offset="0" stop-color="#e3fbdd" stop-opacity=".95"/><stop offset="1" stop-color="#fff1ee" stop-opacity=".95"/></linearGradient></defs><g><g><path fill="#feb400" d="M17.97 2.442L194.312 147.94c4.537 3.743 5.185 10.462 1.448 15.007-3.737 4.544-10.444 5.193-14.98 1.45L4.436 18.9C-.099 15.156-.748 8.437 2.99 3.892 6.726-.652 13.433-1.302 17.97 2.442z"/><path fill="url(#zirka)" d="M17.97 2.442L194.312 147.94c4.537 3.743 5.185 10.462 1.448 15.007-3.737 4.544-10.444 5.193-14.98 1.45L4.436 18.9C-.099 15.156-.748 8.437 2.99 3.892 6.726-.652 13.433-1.302 17.97 2.442z"/></g></g></svg>