<svg xmlns="http://www.w3.org/2000/svg" width="164" height="137" viewBox="0 0 164 137"><defs><linearGradient id="fbvga" x1="69.29" x2="95" y1=".72" y2="136.99" gradientUnits="userSpaceOnUse"><stop offset="0" stop-color="#e3fbdd" stop-opacity=".95"/><stop offset="1" stop-color="#fff0ed" stop-opacity=".95"/></linearGradient></defs><g><g><path fill="#feb400" d="M16.437 2.337l144.747 116.414c3.724 2.996 3.76 9.145.08 13.736-3.68 4.591-9.682 5.885-13.406 2.89L3.111 18.963c-3.724-2.995-3.76-9.145-.08-13.736 3.68-4.591 9.682-5.885 13.406-2.89z"/><path fill="url(#fbvga)" d="M16.437 2.337l144.747 116.414c3.724 2.996 3.76 9.145.08 13.736-3.68 4.591-9.682 5.885-13.406 2.89L3.111 18.963c-3.724-2.995-3.76-9.145-.08-13.736 3.68-4.591 9.682-5.885 13.406-2.89z"/><path fill="#f6e7ee" d="M16.437 2.337l144.747 116.414c3.724 2.996 3.76 9.145.08 13.736-3.68 4.591-9.682 5.885-13.406 2.89L3.111 18.963c-3.724-2.995-3.76-9.145-.08-13.736 3.68-4.591 9.682-5.885 13.406-2.89z"/></g></g></svg>